<svg xmlns="http://www.w3.org/2000/svg" xmlns:xlink="http://www.w3.org/1999/xlink" width="31" height="31" viewBox="0 0 31 31"><defs><path id="60fda" d="M891 1148a14 14 0 1 1 0-28 14 14 0 0 1 0 28zm0-25c-6.07 0-11 4.93-11 11 0 6.06 4.93 11 11 11s11-4.94 11-11c0-6.07-4.93-11-11-11zm-.44 16.56a1.5 1.5 0 0 1-2.12 0l-4-4c-.3-.3-.44-.72-.43-1.12.02-.36.15-.72.43-1s.64-.41 1-.43c.4-.02.81.12 1.12.43l2.94 2.94 6.94-6.94c.3-.31.72-.45 1.12-.43.36.02.72.15 1 .43s.41.64.43 1c.01.4-.12.81-.43 1.12z"/></defs><g><g transform="translate(-876 -1118)"><use fill="#f26522" xlink:href="#60fda"/></g></g></svg>